<svg width="24" height="24" xmlns="http://www.w3.org/2000/svg" fill="#77767b">

 <g>
  <title>Layer 1</title>
  <g stroke-width="0" id="SVGRepo_bgCarrier"/>
  <g stroke-linejoin="round" stroke-linecap="round" id="SVGRepo_tracerCarrier"/>
  <g id="SVGRepo_iconCarrier">
   <g id="Highlighter_pen">
    <path id="svg_1" d="m20.15038,6.55463l-2.95643,-2.95639a0.54661,0.54661 0 0 0 -0.73993,-0.03055l-8.24846,6.98847l4.98704,4.98699l6.98834,-8.24851a0.54664,0.54664 0 0 0 -0.03055,-0.74002z"/>
    <rect id="svg_2" y="-299.54358" x="2254.7103" width="41.0143" transform="matrix(0.0294839, -0.0294839, 0.0294839, 0.0294839, -51.477, 87.7954)" height="172.7608"/>
    <path id="svg_3" d="m5.26819,16.49202l1.98847,1.98848c0.77235,-0.459 1.69496,-0.64963 2.63363,-0.72515l-3.89696,-3.89696c-0.07554,0.93863 -0.26616,1.86127 -0.72515,2.63362z"/>
    <path id="svg_4" d="m3.76971,18.15559a0.27413,0.27413 0 0 0 -0.05309,0.31278l0.93295,1.93833a0.27414,0.27414 0 0 0 0.44083,0.07491l1.30973,-1.30973l-1.82333,-1.82333l-0.80709,0.80705z"/>
   </g>
  </g>
 </g>
</svg>